<svg width="276" height="276" viewBox="0 0 276 276" fill="none" xmlns="http://www.w3.org/2000/svg">
<rect width="276" height="276" rx="50" fill="#0A754F"/>
<g opacity="0.2" filter="url(#filter0_i_60_12)">
<path d="M236.571 50.1549V228.168C236.57 230.549 235.766 232.859 234.29 234.722C232.814 236.584 230.309 238.196 228 238.73C225.691 239.265 183.094 239.442 180 238.73C176.906 238.019 174.463 236.147 172.284 232.951L92.244 107.191L92.1678 107.059V106.972L91.6775 106.195L91.3943 105.757C89.8579 103.776 87.6668 102.413 85.2172 101.914C82.7675 101.414 80.2209 101.812 78.0378 103.035C75.8547 104.258 74.1791 106.225 73.3139 108.581C72.4488 110.937 72.4512 113.527 73.3207 115.881L142.118 222.323L142.401 222.75C142.625 223.132 142.825 223.527 143 223.932C143.607 225.277 143.919 226.736 143.916 228.212C143.914 230.594 143.108 232.906 141.63 234.768C140.152 236.631 138.089 237.935 135.778 238.468C135.009 238.644 134.223 238.733 133.435 238.73H49.898C50.6862 238.733 51.472 238.644 52.2402 238.468H47.5993C45.6773 238.037 43.9152 237.07 42.516 235.678C41.1168 234.286 40.1372 232.525 39.6901 230.598C39.5142 229.815 39.4265 229.015 39.4286 228.212V50.1549C39.4286 47.3653 40.5316 44.6899 42.495 42.7173C44.4584 40.7447 47.1214 39.6366 49.898 39.6366H95.2618C95.6513 39.6363 96.0404 39.6582 96.4274 39.7022H96.4601L97.0593 39.7898L97.5168 39.8883C97.7339 39.9314 97.9485 39.9862 98.1596 40.0525L98.7479 40.2385L99.3253 40.4684L99.8591 40.7201C100.033 40.8077 100.208 40.8952 100.371 40.9937L100.872 41.3002C101.192 41.5104 101.501 41.7369 101.798 41.9788L102.245 42.3619L102.659 42.7559C102.928 43.0347 103.182 43.3269 103.422 43.6315V43.7191C103.531 43.8504 103.629 43.9927 103.727 44.1241L103.977 44.4853C104.075 44.6385 104.162 44.7917 104.25 44.945L104.511 45.4156L182.852 168.779C185.869 172.84 188.114 176.737 193.016 176.737C194.392 176.737 195.754 176.464 197.025 175.935C198.296 175.406 199.451 174.63 200.423 173.652C201.395 172.674 202.166 171.513 202.692 170.236C203.217 168.958 203.487 167.589 203.485 166.207C203.485 165.934 203.485 165.649 203.485 165.364C203.363 164.041 202.993 162.752 202.396 161.566L201.1 159.553L181.686 129.344L134.699 56.0434L134.427 55.6166C134.285 55.3867 134.165 55.1569 134.045 54.927C133.232 53.3289 132.838 51.5483 132.903 49.7544C132.967 47.9605 133.486 46.2129 134.412 44.6775C135.338 43.1422 136.639 41.8701 138.191 40.9821C139.744 40.094 141.497 39.6195 143.284 39.6037L143.393 39.4286L226.56 39.4943L226.679 39.6146C229.359 39.7633 231.879 40.9398 233.719 42.9011C235.56 44.8625 236.581 47.4591 236.571 50.1549Z" fill="#0A754F"/>
</g>
<g filter="url(#filter1_dii_60_12)">
<path d="M228.686 57.1938V221.153C228.685 223.346 227.945 225.474 226.587 227.19C225.229 228.905 222.924 230.389 220.8 230.882C218.676 231.374 179.486 231.537 176.64 230.882C173.794 230.226 171.546 228.503 169.541 225.559L95.9045 109.727L95.8343 109.606V109.525L95.3833 108.809L95.1227 108.406C93.7092 106.582 91.6934 105.326 89.4398 104.866C87.1861 104.406 84.8432 104.773 82.8347 105.899C80.8263 107.026 79.2847 108.838 78.4888 111.008C77.6928 113.178 77.6951 115.562 78.495 117.731L141.789 215.77L142.049 216.163C142.255 216.515 142.439 216.878 142.6 217.252C143.158 218.49 143.445 219.834 143.442 221.194C143.441 223.388 142.7 225.517 141.34 227.233C139.98 228.948 138.082 230.149 135.955 230.64C135.249 230.803 134.526 230.884 133.8 230.882H56.9461C57.6712 230.884 58.3942 230.803 59.101 230.64H54.8314C53.063 230.243 51.4419 229.353 50.1547 228.07C48.8674 226.788 47.9662 225.166 47.5548 223.391C47.393 222.67 47.3123 221.933 47.3143 221.194V57.1938C47.3143 54.6244 48.3291 52.1602 50.1354 50.3433C51.9417 48.5265 54.3916 47.5058 56.9461 47.5058H98.6808C99.0391 47.5056 99.3971 47.5258 99.7532 47.5663H99.7833L100.335 47.647L100.755 47.7377C100.955 47.7774 101.153 47.8279 101.347 47.8889L101.888 48.0603L102.419 48.272L102.91 48.5038C103.071 48.5845 103.231 48.6651 103.381 48.7559L103.842 49.0382C104.137 49.2317 104.421 49.4403 104.694 49.6632L105.105 50.016L105.486 50.3789C105.733 50.6357 105.968 50.9049 106.188 51.1854V51.2661C106.288 51.387 106.378 51.5181 106.468 51.6391L106.699 51.9718C106.789 52.1129 106.869 52.254 106.95 52.3951L107.19 52.8286L179.264 166.453C182.04 170.193 184.105 173.782 188.615 173.782C189.88 173.782 191.134 173.531 192.303 173.044C193.472 172.556 194.535 171.842 195.429 170.941C196.324 170.04 197.033 168.971 197.516 167.795C198 166.618 198.248 165.357 198.247 164.084C198.247 163.832 198.247 163.57 198.247 163.308C198.134 162.089 197.794 160.902 197.244 159.81L196.052 157.955L178.191 130.131L134.963 62.6174L134.712 62.2243C134.582 62.0125 134.472 61.8008 134.362 61.5891C133.613 60.1171 133.251 58.4772 133.31 56.8249C133.369 55.1726 133.847 53.563 134.699 52.1488C135.551 50.7347 136.748 49.563 138.176 48.7451C139.605 47.9272 141.217 47.4901 142.861 47.4755L142.961 47.3143L219.475 47.3748L219.585 47.4856C222.05 47.6226 224.368 48.7061 226.062 50.5127C227.755 52.3192 228.695 54.7108 228.686 57.1938Z" fill="white"/>
</g>
<rect x="199.771" y="39.4286" width="52.5714" height="52.5714" rx="26.2857" fill="#0A754F"/>
<g filter="url(#filter2_dii_60_12)">
<path d="M226.018 49.7146C225.313 49.7249 224.641 50.0148 224.149 50.5204C223.658 51.0261 223.387 51.7063 223.397 52.4114V63.0532H212.755C212.403 63.0482 212.053 63.1134 211.726 63.2448C211.399 63.3763 211.101 63.5715 210.85 63.819C210.599 64.0666 210.399 64.3615 210.263 64.6868C210.127 65.012 210.057 65.3611 210.057 65.7137C210.057 66.0663 210.127 66.4153 210.263 66.7406C210.399 67.0658 210.599 67.3608 210.85 67.6083C211.101 67.8559 211.399 68.0511 211.726 68.1825C212.053 68.314 212.403 68.3791 212.755 68.3741H223.397V79.0159C223.392 79.3685 223.457 79.7185 223.588 80.0457C223.72 80.3728 223.915 80.6706 224.163 80.9216C224.41 81.1727 224.705 81.3721 225.03 81.5081C225.356 81.6442 225.705 81.7143 226.057 81.7143C226.41 81.7143 226.759 81.6442 227.084 81.5081C227.409 81.3721 227.704 81.1727 227.952 80.9216C228.199 80.6706 228.394 80.3728 228.526 80.0457C228.657 79.7185 228.722 79.3685 228.717 79.0159V68.3741H239.359C239.711 68.3791 240.061 68.314 240.389 68.1825C240.716 68.0511 241.013 67.8559 241.265 67.6083C241.516 67.3608 241.715 67.0658 241.851 66.7406C241.987 66.4153 242.057 66.0663 242.057 65.7137C242.057 65.3611 241.987 65.012 241.851 64.6868C241.715 64.3615 241.516 64.0666 241.265 63.819C241.013 63.5715 240.716 63.3763 240.389 63.2448C240.061 63.1134 239.711 63.0482 239.359 63.0532H228.717V52.4114C228.722 52.0557 228.656 51.7026 228.522 51.373C228.388 51.0435 228.189 50.7441 227.938 50.4927C227.686 50.2413 227.386 50.0429 227.057 49.9092C226.727 49.7755 226.374 49.7094 226.018 49.7146Z" fill="white"/>
</g>
<defs>
<filter id="filter0_i_60_12" x="39.4286" y="39.4286" width="197.143" height="203.771" filterUnits="userSpaceOnUse" color-interpolation-filters="sRGB">
<feFlood flood-opacity="0" result="BackgroundImageFix"/>
<feBlend mode="normal" in="SourceGraphic" in2="BackgroundImageFix" result="shape"/>
<feColorMatrix in="SourceAlpha" type="matrix" values="0 0 0 0 0 0 0 0 0 0 0 0 0 0 0 0 0 0 127 0" result="hardAlpha"/>
<feOffset dy="4"/>
<feGaussianBlur stdDeviation="2"/>
<feComposite in2="hardAlpha" operator="arithmetic" k2="-1" k3="1"/>
<feColorMatrix type="matrix" values="0 0 0 0 0 0 0 0 0 0 0 0 0 0 0 0 0 0 0.25 0"/>
<feBlend mode="normal" in2="shape" result="effect1_innerShadow_60_12"/>
</filter>
<filter id="filter1_dii_60_12" x="37.3143" y="41.3143" width="201.371" height="204" filterUnits="userSpaceOnUse" color-interpolation-filters="sRGB">
<feFlood flood-opacity="0" result="BackgroundImageFix"/>
<feColorMatrix in="SourceAlpha" type="matrix" values="0 0 0 0 0 0 0 0 0 0 0 0 0 0 0 0 0 0 127 0" result="hardAlpha"/>
<feOffset dy="4"/>
<feGaussianBlur stdDeviation="5"/>
<feComposite in2="hardAlpha" operator="out"/>
<feColorMatrix type="matrix" values="0 0 0 0 0 0 0 0 0 0 0 0 0 0 0 0 0 0 0.06 0"/>
<feBlend mode="normal" in2="BackgroundImageFix" result="effect1_dropShadow_60_12"/>
<feBlend mode="normal" in="SourceGraphic" in2="effect1_dropShadow_60_12" result="shape"/>
<feColorMatrix in="SourceAlpha" type="matrix" values="0 0 0 0 0 0 0 0 0 0 0 0 0 0 0 0 0 0 127 0" result="hardAlpha"/>
<feOffset dy="-4"/>
<feGaussianBlur stdDeviation="2"/>
<feComposite in2="hardAlpha" operator="arithmetic" k2="-1" k3="1"/>
<feColorMatrix type="matrix" values="0 0 0 0 0 0 0 0 0 0 0 0 0 0 0 0 0 0 0.25 0"/>
<feBlend mode="normal" in2="shape" result="effect2_innerShadow_60_12"/>
<feColorMatrix in="SourceAlpha" type="matrix" values="0 0 0 0 0 0 0 0 0 0 0 0 0 0 0 0 0 0 127 0" result="hardAlpha"/>
<feOffset dx="2" dy="3"/>
<feGaussianBlur stdDeviation="1"/>
<feComposite in2="hardAlpha" operator="arithmetic" k2="-1" k3="1"/>
<feColorMatrix type="matrix" values="0 0 0 0 0.633333 0 0 0 0 1 0 0 0 0 0.871171 0 0 0 0.8 0"/>
<feBlend mode="normal" in2="effect2_innerShadow_60_12" result="effect3_innerShadow_60_12"/>
</filter>
<filter id="filter2_dii_60_12" x="200.057" y="43.7143" width="52" height="52" filterUnits="userSpaceOnUse" color-interpolation-filters="sRGB">
<feFlood flood-opacity="0" result="BackgroundImageFix"/>
<feColorMatrix in="SourceAlpha" type="matrix" values="0 0 0 0 0 0 0 0 0 0 0 0 0 0 0 0 0 0 127 0" result="hardAlpha"/>
<feOffset dy="4"/>
<feGaussianBlur stdDeviation="5"/>
<feComposite in2="hardAlpha" operator="out"/>
<feColorMatrix type="matrix" values="0 0 0 0 0 0 0 0 0 0 0 0 0 0 0 0 0 0 0.06 0"/>
<feBlend mode="normal" in2="BackgroundImageFix" result="effect1_dropShadow_60_12"/>
<feBlend mode="normal" in="SourceGraphic" in2="effect1_dropShadow_60_12" result="shape"/>
<feColorMatrix in="SourceAlpha" type="matrix" values="0 0 0 0 0 0 0 0 0 0 0 0 0 0 0 0 0 0 127 0" result="hardAlpha"/>
<feOffset dy="-4"/>
<feGaussianBlur stdDeviation="2"/>
<feComposite in2="hardAlpha" operator="arithmetic" k2="-1" k3="1"/>
<feColorMatrix type="matrix" values="0 0 0 0 0 0 0 0 0 0 0 0 0 0 0 0 0 0 0.25 0"/>
<feBlend mode="normal" in2="shape" result="effect2_innerShadow_60_12"/>
<feColorMatrix in="SourceAlpha" type="matrix" values="0 0 0 0 0 0 0 0 0 0 0 0 0 0 0 0 0 0 127 0" result="hardAlpha"/>
<feOffset dx="2" dy="3"/>
<feGaussianBlur stdDeviation="1"/>
<feComposite in2="hardAlpha" operator="arithmetic" k2="-1" k3="1"/>
<feColorMatrix type="matrix" values="0 0 0 0 0.633333 0 0 0 0 1 0 0 0 0 0.871171 0 0 0 0.8 0"/>
<feBlend mode="normal" in2="effect2_innerShadow_60_12" result="effect3_innerShadow_60_12"/>
</filter>
</defs>
</svg>
