<svg width="100" height="100" viewBox="0 0 100 100" fill="none" xmlns="http://www.w3.org/2000/svg">
<rect width="100" height="100" rx="26" fill="url(#paint0_linear_606_401)"/>
<g opacity="0.2" filter="url(#filter0_i_606_401)">
<path d="M83.2499 20.5949V80.255C83.2495 81.0529 82.98 81.8272 82.4854 82.4514C81.9907 83.0756 81.1512 83.6157 80.3773 83.7949C79.6033 83.974 65.3273 84.0333 64.2903 83.7949C63.2534 83.5564 62.4347 82.9291 61.7044 81.858L34.8794 39.71L34.8539 39.666V39.6367L34.6896 39.3762L34.5946 39.2295C34.0797 38.5656 33.3454 38.1088 32.5244 37.9415C31.7034 37.7742 30.85 37.9075 30.1183 38.3174C29.3866 38.7272 28.8251 39.3866 28.5351 40.1762C28.2452 40.9658 28.246 41.8335 28.5374 42.6226L51.5944 78.2962L51.6893 78.4392C51.7642 78.5671 51.8312 78.6994 51.8901 78.8354C52.0934 79.2859 52.198 79.775 52.1968 80.2697C52.1963 81.0681 51.9263 81.8427 51.4309 82.467C50.9355 83.0913 50.244 83.5284 49.4694 83.7068C49.212 83.7661 48.9486 83.7956 48.6844 83.7948H20.6874C20.9515 83.7956 21.2149 83.7661 21.4724 83.7068H19.917C19.2728 83.5625 18.6823 83.2384 18.2134 82.7718C17.7444 82.3052 17.4161 81.7151 17.2663 81.0693C17.2073 80.8069 17.1779 80.5387 17.1786 80.2697V20.5949C17.1786 19.6599 17.5483 18.7633 18.2063 18.1022C18.8644 17.4411 19.7568 17.0697 20.6874 17.0697H35.8908C36.0213 17.0696 36.1518 17.077 36.2815 17.0917H36.2924L36.4932 17.1211L36.6466 17.1541C36.7193 17.1685 36.7912 17.1869 36.862 17.2091L37.0592 17.2714L37.2527 17.3485L37.4316 17.4328C37.49 17.4622 37.5484 17.4915 37.6032 17.5246L37.7711 17.6273C37.8784 17.6977 37.982 17.7736 38.0815 17.8547L38.2312 17.9831L38.3699 18.1151C38.46 18.2086 38.5453 18.3065 38.6255 18.4086V18.4379C38.662 18.482 38.6949 18.5296 38.7277 18.5737L38.8117 18.6947C38.8446 18.7461 38.8738 18.7974 38.903 18.8488L38.9906 19.0065L65.2461 60.3512C66.2574 61.7121 67.0096 63.018 68.6526 63.018C69.1137 63.018 69.5702 62.9267 69.9962 62.7493C70.4221 62.5719 70.8091 62.3119 71.135 61.9842C71.4608 61.6565 71.7192 61.2674 71.8953 60.8393C72.0714 60.4112 72.1618 59.9524 72.1613 59.4891C72.1613 59.3974 72.1613 59.3021 72.1613 59.2067C72.1203 58.7631 71.9964 58.3313 71.7962 57.9338L71.3617 57.2589L64.8554 47.1345L49.108 22.5684L49.0167 22.4253C48.9692 22.3483 48.9291 22.2712 48.8889 22.1942C48.6162 21.6586 48.4844 21.0619 48.5059 20.4606C48.5274 19.8594 48.7016 19.2737 49.0118 18.7592C49.322 18.2446 49.758 17.8183 50.2784 17.5206C50.7988 17.223 51.3863 17.064 51.9851 17.0587L52.0216 17L79.8945 17.022L79.9347 17.0624C80.8326 17.1122 81.6771 17.5065 82.2941 18.1638C82.911 18.8212 83.2531 19.6914 83.2499 20.5949Z" fill="#0A754F"/>
</g>
<g filter="url(#filter1_dii_606_401)">
<path d="M80.607 22.9539V77.904C80.6067 78.6389 80.3588 79.352 79.9037 79.927C79.4486 80.5019 78.6762 80.9994 77.9642 81.1644C77.2522 81.3294 64.1182 81.384 63.1642 81.1644C62.2103 80.9448 61.457 80.367 60.7852 79.3805L36.1062 40.5599L36.0827 40.5194V40.4924L35.9315 40.2525L35.8442 40.1173C35.3705 39.5059 34.6949 39.0851 33.9396 38.931C33.1843 38.777 32.3991 38.8998 31.7259 39.2773C31.0528 39.6548 30.5362 40.262 30.2694 40.9893C30.0027 41.7166 30.0034 42.5158 30.2715 43.2426L51.484 76.0998L51.5713 76.2316C51.6402 76.3493 51.7019 76.4712 51.7561 76.5965C51.943 77.0114 52.0393 77.4619 52.0382 77.9175C52.0377 78.6529 51.7893 79.3664 51.3335 79.9414C50.8778 80.5164 50.2416 80.919 49.529 81.0833C49.2921 81.1379 49.0498 81.1651 48.8068 81.1644H23.0495C23.2925 81.1651 23.5348 81.1379 23.7717 81.0833H22.3408C21.7481 80.9504 21.2048 80.6519 20.7734 80.2221C20.342 79.7924 20.04 79.2488 19.9021 78.6541C19.8478 78.4124 19.8208 78.1653 19.8215 77.9175V22.9539C19.8215 22.0928 20.1616 21.2669 20.767 20.658C21.3723 20.0491 22.1934 19.707 23.0495 19.707H37.0367C37.1568 19.7069 37.2767 19.7137 37.3961 19.7273H37.4062L37.5909 19.7543L37.732 19.7847C37.7989 19.798 37.8651 19.815 37.9302 19.8354L38.1115 19.8928L38.2896 19.9638L38.4542 20.0415C38.5079 20.0685 38.5617 20.0956 38.6121 20.126L38.7666 20.2206C38.8652 20.2854 38.9606 20.3554 39.0521 20.4301L39.1898 20.5483L39.3175 20.6699C39.4003 20.756 39.4788 20.8462 39.5526 20.9402V20.9672C39.5862 21.0078 39.6164 21.0517 39.6466 21.0922L39.7239 21.2038C39.7541 21.2511 39.781 21.2983 39.8079 21.3456L39.8885 21.4909L64.0435 59.5715C64.974 60.825 65.6659 62.0278 67.1775 62.0278C67.6017 62.0278 68.0217 61.9437 68.4136 61.7803C68.8055 61.617 69.1615 61.3775 69.4613 61.0756C69.7611 60.7738 69.9988 60.4154 70.1608 60.0211C70.3228 59.6268 70.406 59.2042 70.4056 58.7776C70.4056 58.6931 70.4056 58.6052 70.4056 58.5174C70.3678 58.1089 70.2538 57.7111 70.0697 57.345L69.6699 56.7233L63.6841 47.3983L49.1965 24.7716L49.1125 24.6398C49.0688 24.5689 49.0319 24.4979 48.9949 24.427C48.7441 23.9336 48.6228 23.384 48.6426 22.8303C48.6624 22.2765 48.8226 21.737 49.108 21.2631C49.3934 20.7892 49.7945 20.3965 50.2733 20.1224C50.752 19.8482 51.2925 19.7018 51.8434 19.6969L51.877 19.6428L77.5201 19.6631L77.557 19.7003C78.3831 19.7461 79.1601 20.1093 79.7277 20.7148C80.2952 21.3202 80.61 22.1217 80.607 22.9539Z" fill="white"/>
</g>
<rect x="70.9167" y="17" width="17.619" height="17.619" rx="8.80951" fill="#0A754F"/>
<g filter="url(#filter2_dii_606_401)">
<path d="M79.7135 20.5814C79.4831 20.5848 79.2634 20.6795 79.1028 20.8447C78.9422 21.01 78.8537 21.2322 78.8569 21.4626V24.94H75.3796C75.2644 24.9384 75.1501 24.9597 75.0432 25.0026C74.9363 25.0456 74.839 25.1093 74.757 25.1902C74.6749 25.2711 74.6098 25.3675 74.5653 25.4738C74.5208 25.5801 74.4979 25.6941 74.4979 25.8093C74.4979 25.9246 74.5208 26.0386 74.5653 26.1449C74.6098 26.2512 74.6749 26.3476 74.757 26.4285C74.839 26.5093 74.9363 26.5731 75.0432 26.6161C75.1501 26.659 75.2644 26.6803 75.3796 26.6787H78.8569V30.1561C78.8553 30.2713 78.8765 30.3856 78.9195 30.4925C78.9625 30.5994 79.0262 30.6967 79.1071 30.7788C79.188 30.8608 79.2844 30.926 79.3907 30.9704C79.4969 31.0149 79.611 31.0378 79.7262 31.0378C79.8414 31.0378 79.9555 31.0149 80.0617 30.9704C80.168 30.926 80.2644 30.8608 80.3453 30.7788C80.4262 30.6967 80.4899 30.5994 80.5329 30.4925C80.5759 30.3856 80.5971 30.2713 80.5955 30.1561V26.6787H84.0728C84.1879 26.6803 84.3023 26.659 84.4092 26.6161C84.5161 26.5731 84.6134 26.5093 84.6954 26.4285C84.7775 26.3476 84.8426 26.2512 84.8871 26.1449C84.9316 26.0386 84.9544 25.9246 84.9544 25.8093C84.9544 25.6941 84.9316 25.5801 84.8871 25.4738C84.8426 25.3675 84.7775 25.2711 84.6954 25.1902C84.6134 25.1093 84.5161 25.0456 84.4092 25.0026C84.3023 24.9597 84.1879 24.9384 84.0728 24.94H80.5955V21.4626C80.5971 21.3464 80.5754 21.231 80.5316 21.1233C80.4878 21.0156 80.4229 20.9178 80.3407 20.8357C80.2584 20.7535 80.1605 20.6887 80.0528 20.645C79.9451 20.6013 79.8297 20.5797 79.7135 20.5814Z" fill="white"/>
</g>
<defs>
<filter id="filter0_i_606_401" x="17.1786" y="17" width="66.0713" height="68.2592" filterUnits="userSpaceOnUse" color-interpolation-filters="sRGB">
<feFlood flood-opacity="0" result="BackgroundImageFix"/>
<feBlend mode="normal" in="SourceGraphic" in2="BackgroundImageFix" result="shape"/>
<feColorMatrix in="SourceAlpha" type="matrix" values="0 0 0 0 0 0 0 0 0 0 0 0 0 0 0 0 0 0 127 0" result="hardAlpha"/>
<feOffset dy="1.30706"/>
<feGaussianBlur stdDeviation="0.653531"/>
<feComposite in2="hardAlpha" operator="arithmetic" k2="-1" k3="1"/>
<feColorMatrix type="matrix" values="0 0 0 0 0 0 0 0 0 0 0 0 0 0 0 0 0 0 0.25 0"/>
<feBlend mode="normal" in2="shape" result="effect1_innerShadow_606_401"/>
</filter>
<filter id="filter1_dii_606_401" x="16.5538" y="17.6822" width="67.3209" height="68.2018" filterUnits="userSpaceOnUse" color-interpolation-filters="sRGB">
<feFlood flood-opacity="0" result="BackgroundImageFix"/>
<feColorMatrix in="SourceAlpha" type="matrix" values="0 0 0 0 0 0 0 0 0 0 0 0 0 0 0 0 0 0 127 0" result="hardAlpha"/>
<feOffset dy="1.30706"/>
<feGaussianBlur stdDeviation="1.63383"/>
<feComposite in2="hardAlpha" operator="out"/>
<feColorMatrix type="matrix" values="0 0 0 0 0 0 0 0 0 0 0 0 0 0 0 0 0 0 0.06 0"/>
<feBlend mode="normal" in2="BackgroundImageFix" result="effect1_dropShadow_606_401"/>
<feBlend mode="normal" in="SourceGraphic" in2="effect1_dropShadow_606_401" result="shape"/>
<feColorMatrix in="SourceAlpha" type="matrix" values="0 0 0 0 0 0 0 0 0 0 0 0 0 0 0 0 0 0 127 0" result="hardAlpha"/>
<feOffset dy="-1.30706"/>
<feGaussianBlur stdDeviation="0.653531"/>
<feComposite in2="hardAlpha" operator="arithmetic" k2="-1" k3="1"/>
<feColorMatrix type="matrix" values="0 0 0 0 0 0 0 0 0 0 0 0 0 0 0 0 0 0 0.25 0"/>
<feBlend mode="normal" in2="shape" result="effect2_innerShadow_606_401"/>
<feColorMatrix in="SourceAlpha" type="matrix" values="0 0 0 0 0 0 0 0 0 0 0 0 0 0 0 0 0 0 127 0" result="hardAlpha"/>
<feOffset dx="0.653531" dy="0.980297"/>
<feGaussianBlur stdDeviation="0.326766"/>
<feComposite in2="hardAlpha" operator="arithmetic" k2="-1" k3="1"/>
<feColorMatrix type="matrix" values="0 0 0 0 0.633333 0 0 0 0 1 0 0 0 0 0.871171 0 0 0 0.8 0"/>
<feBlend mode="normal" in2="effect2_innerShadow_606_401" result="effect3_innerShadow_606_401"/>
</filter>
<filter id="filter2_dii_606_401" x="71.2303" y="18.6207" width="16.9918" height="16.9919" filterUnits="userSpaceOnUse" color-interpolation-filters="sRGB">
<feFlood flood-opacity="0" result="BackgroundImageFix"/>
<feColorMatrix in="SourceAlpha" type="matrix" values="0 0 0 0 0 0 0 0 0 0 0 0 0 0 0 0 0 0 127 0" result="hardAlpha"/>
<feOffset dy="1.30706"/>
<feGaussianBlur stdDeviation="1.63383"/>
<feComposite in2="hardAlpha" operator="out"/>
<feColorMatrix type="matrix" values="0 0 0 0 0 0 0 0 0 0 0 0 0 0 0 0 0 0 0.06 0"/>
<feBlend mode="normal" in2="BackgroundImageFix" result="effect1_dropShadow_606_401"/>
<feBlend mode="normal" in="SourceGraphic" in2="effect1_dropShadow_606_401" result="shape"/>
<feColorMatrix in="SourceAlpha" type="matrix" values="0 0 0 0 0 0 0 0 0 0 0 0 0 0 0 0 0 0 127 0" result="hardAlpha"/>
<feOffset dy="-1.30706"/>
<feGaussianBlur stdDeviation="0.653531"/>
<feComposite in2="hardAlpha" operator="arithmetic" k2="-1" k3="1"/>
<feColorMatrix type="matrix" values="0 0 0 0 0 0 0 0 0 0 0 0 0 0 0 0 0 0 0.25 0"/>
<feBlend mode="normal" in2="shape" result="effect2_innerShadow_606_401"/>
<feColorMatrix in="SourceAlpha" type="matrix" values="0 0 0 0 0 0 0 0 0 0 0 0 0 0 0 0 0 0 127 0" result="hardAlpha"/>
<feOffset dx="0.653531" dy="0.980297"/>
<feGaussianBlur stdDeviation="0.326766"/>
<feComposite in2="hardAlpha" operator="arithmetic" k2="-1" k3="1"/>
<feColorMatrix type="matrix" values="0 0 0 0 0.633333 0 0 0 0 1 0 0 0 0 0.871171 0 0 0 0.8 0"/>
<feBlend mode="normal" in2="effect2_innerShadow_606_401" result="effect3_innerShadow_606_401"/>
</filter>
<linearGradient id="paint0_linear_606_401" x1="100" y1="-3.50001" x2="-1.40071e-06" y2="106.5" gradientUnits="userSpaceOnUse">
<stop stop-color="#0A754F"/>
<stop offset="0.35" stop-color="#14B173"/>
<stop offset="1" stop-color="#01E784"/>
</linearGradient>
</defs>
</svg>
