<svg width="89" height="90" viewBox="0 0 89 90" fill="none" xmlns="http://www.w3.org/2000/svg">
<g opacity="0.2" filter="url(#filter0_i_62_19)">
<path d="M82 7.08066V74.8031C81.9996 75.7089 81.6936 76.5877 81.1321 77.2963C80.5706 78.0049 79.6176 78.618 78.7391 78.8214C77.8606 79.0247 61.6553 79.092 60.4783 78.8214C59.3012 78.5507 58.3718 77.8386 57.5429 76.6228L27.0928 28.779L27.0638 28.729V28.6957L26.8773 28.4001L26.7696 28.2335C26.1851 27.4799 25.3515 26.9614 24.4196 26.7715C23.4876 26.5816 22.5188 26.7329 21.6883 27.1982C20.8578 27.6634 20.2203 28.4118 19.8912 29.3082C19.562 30.2045 19.5629 31.1895 19.8937 32.0852L46.0666 72.5796L46.1744 72.742C46.2594 72.8871 46.3355 73.0373 46.4023 73.1917C46.633 73.7031 46.7518 74.2583 46.7505 74.8198C46.7499 75.7261 46.4434 76.6054 45.881 77.3141C45.3187 78.0227 44.5338 78.5188 43.6545 78.7214C43.3622 78.7887 43.0633 78.8222 42.7634 78.8213H10.9829C11.2828 78.8222 11.5817 78.7887 11.874 78.7214H10.1084C9.37721 78.5576 8.70686 78.1897 8.17455 77.6601C7.64224 77.1304 7.2696 76.4605 7.09948 75.7275C7.03255 75.4296 6.99919 75.1252 7.00001 74.8198V7.08066C7.00001 6.01939 7.41964 5.00158 8.16658 4.25114C8.91353 3.5007 9.9266 3.07912 10.9829 3.07912H28.2409C28.3891 3.07902 28.5371 3.08736 28.6843 3.1041H28.6968L28.9247 3.13742L29.0988 3.17488C29.1814 3.19128 29.263 3.21214 29.3433 3.23735L29.5671 3.30813L29.7868 3.39558L29.9899 3.49134C30.0562 3.52465 30.1225 3.55797 30.1847 3.59544L30.3753 3.71204C30.4971 3.79198 30.6147 3.87815 30.7276 3.97021L30.8975 4.11594L31.055 4.26583C31.1573 4.3719 31.2541 4.48307 31.3452 4.59894V4.63226C31.3866 4.68223 31.4239 4.73636 31.4612 4.78632L31.5565 4.92374C31.5938 4.98204 31.627 5.04033 31.6602 5.09862L31.7596 5.27767L61.5631 52.2095C62.7112 53.7544 63.565 55.2367 65.43 55.2367C65.9534 55.2367 66.4717 55.1331 66.9552 54.9317C67.4387 54.7304 67.8779 54.4353 68.2478 54.0632C68.6177 53.6912 68.911 53.2496 69.111 52.7636C69.3109 52.2777 69.4135 51.7569 69.4129 51.231C69.4129 51.1269 69.4129 51.0187 69.4129 50.9104C69.3663 50.4069 69.2257 49.9167 68.9985 49.4655L68.5053 48.6993L61.1197 37.2069L43.2442 9.32087L43.1406 9.15847C43.0867 9.07103 43.0411 8.98358 42.9955 8.89614C42.686 8.28814 42.5364 7.61076 42.5608 6.9283C42.5852 6.24585 42.7829 5.58099 43.135 4.99689C43.4872 4.41278 43.9821 3.92883 44.5728 3.59099C45.1635 3.25316 45.8304 3.07264 46.5101 3.06661L46.5516 3L78.1911 3.02498L78.2367 3.07078C79.256 3.12733 80.2147 3.5749 80.915 4.32108C81.6152 5.06727 82.0037 6.0551 82 7.08066Z" fill="#0A754F"/>
</g>
<g filter="url(#filter1_dii_62_19)">
<path d="M79 9.75851V72.1345C78.9996 72.9687 78.7182 73.7782 78.2016 74.4308C77.685 75.0835 76.8082 75.6481 76 75.8355C75.1918 76.0228 60.2829 76.0847 59.2 75.8355C58.1171 75.5862 57.2621 74.9303 56.4995 73.8105L28.4854 29.7438L28.4587 29.6978V29.6671L28.2871 29.3948L28.188 29.2414C27.6502 28.5473 26.8834 28.0697 26.026 27.8948C25.1686 27.7199 24.2773 27.8593 23.5132 28.2878C22.7491 28.7163 22.1627 29.4057 21.8599 30.2312C21.5571 31.0567 21.5579 31.964 21.8622 32.789L45.9413 70.0864L46.0404 70.236C46.1186 70.3697 46.1886 70.508 46.2502 70.6502C46.4624 71.1213 46.5716 71.6326 46.5705 72.1498C46.5699 72.9846 46.2879 73.7944 45.7705 74.4472C45.2532 75.0999 44.5311 75.5568 43.7222 75.7434C43.4533 75.8053 43.1782 75.8362 42.9024 75.8354H13.6643C13.9402 75.8362 14.2152 75.8053 14.4841 75.7434H12.8598C12.187 75.5925 11.5703 75.2537 11.0806 74.7659C10.5909 74.278 10.248 73.661 10.0915 72.9859C10.0299 72.7115 9.99926 72.4311 10 72.1498V9.75851C10 8.78101 10.3861 7.84356 11.0733 7.15237C11.7604 6.46118 12.6925 6.07287 13.6643 6.07287H29.5416C29.6779 6.07278 29.8141 6.08046 29.9496 6.09588H29.961L30.1707 6.12657L30.3309 6.16107C30.4069 6.17618 30.482 6.19539 30.5559 6.21861L30.7618 6.2838L30.9639 6.36435L31.1507 6.45255C31.2117 6.48323 31.2727 6.51392 31.3299 6.54843L31.5053 6.65583C31.6173 6.72946 31.7255 6.80882 31.8294 6.89361L31.9857 7.02784L32.1306 7.1659C32.2247 7.26359 32.3138 7.36599 32.3975 7.47271V7.5034C32.4357 7.54942 32.47 7.59928 32.5043 7.6453L32.592 7.77187C32.6263 7.82556 32.6568 7.87925 32.6873 7.93294L32.7789 8.09785L60.1981 51.3246C61.2543 52.7474 62.0398 54.1128 63.7556 54.1128C64.2371 54.1128 64.7139 54.0173 65.1588 53.8319C65.6036 53.6464 66.0077 53.3746 66.348 53.0319C66.6883 52.6893 66.9582 52.2825 67.1421 51.8349C67.326 51.3873 67.4204 50.9076 67.4199 50.4233C67.4199 50.3274 67.4199 50.2277 67.4199 50.128C67.377 49.6642 67.2477 49.2127 67.0386 48.7972L66.5849 48.0915L59.7901 37.5063L43.3447 11.8219L43.2493 11.6723C43.1998 11.5917 43.1578 11.5112 43.1159 11.4307C42.8311 10.8707 42.6935 10.2468 42.7159 9.61817C42.7384 8.98959 42.9202 8.37723 43.2442 7.83924C43.5682 7.30125 44.0235 6.8555 44.567 6.54434C45.1105 6.23317 45.724 6.0669 46.3493 6.06135L46.3874 6L75.4958 6.02301L75.5378 6.06519C76.4755 6.11728 77.3575 6.52951 78.0018 7.21679C78.646 7.90406 79.0034 8.81391 79 9.75851Z" fill="#7AC0A7"/>
</g>
<defs>
<filter id="filter0_i_62_19" x="7" y="3" width="75" height="80" filterUnits="userSpaceOnUse" color-interpolation-filters="sRGB">
<feFlood flood-opacity="0" result="BackgroundImageFix"/>
<feBlend mode="normal" in="SourceGraphic" in2="BackgroundImageFix" result="shape"/>
<feColorMatrix in="SourceAlpha" type="matrix" values="0 0 0 0 0 0 0 0 0 0 0 0 0 0 0 0 0 0 127 0" result="hardAlpha"/>
<feOffset dy="4"/>
<feGaussianBlur stdDeviation="2"/>
<feComposite in2="hardAlpha" operator="arithmetic" k2="-1" k3="1"/>
<feColorMatrix type="matrix" values="0 0 0 0 0 0 0 0 0 0 0 0 0 0 0 0 0 0 0.25 0"/>
<feBlend mode="normal" in2="shape" result="effect1_innerShadow_62_19"/>
</filter>
<filter id="filter1_dii_62_19" x="0" y="0" width="89" height="90" filterUnits="userSpaceOnUse" color-interpolation-filters="sRGB">
<feFlood flood-opacity="0" result="BackgroundImageFix"/>
<feColorMatrix in="SourceAlpha" type="matrix" values="0 0 0 0 0 0 0 0 0 0 0 0 0 0 0 0 0 0 127 0" result="hardAlpha"/>
<feOffset dy="4"/>
<feGaussianBlur stdDeviation="5"/>
<feComposite in2="hardAlpha" operator="out"/>
<feColorMatrix type="matrix" values="0 0 0 0 0 0 0 0 0 0 0 0 0 0 0 0 0 0 0.06 0"/>
<feBlend mode="normal" in2="BackgroundImageFix" result="effect1_dropShadow_62_19"/>
<feBlend mode="normal" in="SourceGraphic" in2="effect1_dropShadow_62_19" result="shape"/>
<feColorMatrix in="SourceAlpha" type="matrix" values="0 0 0 0 0 0 0 0 0 0 0 0 0 0 0 0 0 0 127 0" result="hardAlpha"/>
<feOffset dy="-4"/>
<feGaussianBlur stdDeviation="2"/>
<feComposite in2="hardAlpha" operator="arithmetic" k2="-1" k3="1"/>
<feColorMatrix type="matrix" values="0 0 0 0 0 0 0 0 0 0 0 0 0 0 0 0 0 0 0.25 0"/>
<feBlend mode="normal" in2="shape" result="effect2_innerShadow_62_19"/>
<feColorMatrix in="SourceAlpha" type="matrix" values="0 0 0 0 0 0 0 0 0 0 0 0 0 0 0 0 0 0 127 0" result="hardAlpha"/>
<feOffset dx="2" dy="3"/>
<feGaussianBlur stdDeviation="1"/>
<feComposite in2="hardAlpha" operator="arithmetic" k2="-1" k3="1"/>
<feColorMatrix type="matrix" values="0 0 0 0 0.633333 0 0 0 0 1 0 0 0 0 0.871171 0 0 0 0.8 0"/>
<feBlend mode="normal" in2="effect2_innerShadow_62_19" result="effect3_innerShadow_62_19"/>
</filter>
</defs>
</svg>
