<svg width="67" height="68" viewBox="0 0 67 68" fill="none" xmlns="http://www.w3.org/2000/svg">
<g opacity="0.2" filter="url(#filter0_i_62_22)">
<path d="M58.171 7.68465V52.2389C58.1707 52.8348 57.9695 53.413 57.6001 53.8792C57.2306 54.3453 56.6037 54.7487 56.0257 54.8825C55.4478 55.0163 44.7864 55.0605 44.012 54.8825C43.2376 54.7044 42.6262 54.236 42.0808 53.436L22.0479 21.9599L22.0288 21.927V21.9051L21.9061 21.7106L21.8352 21.601C21.4507 21.1052 20.9023 20.764 20.2892 20.6391C19.676 20.5142 19.0387 20.6138 18.4923 20.9199C17.9459 21.2259 17.5265 21.7183 17.3099 22.308C17.0934 22.8977 17.094 23.5457 17.3116 24.135L34.5306 50.776L34.6015 50.8829C34.6574 50.9784 34.7075 51.0772 34.7515 51.1787C34.9033 51.5152 34.9814 51.8805 34.9806 52.2499C34.9801 52.8461 34.7785 53.4246 34.4085 53.8908C34.0386 54.3571 33.5222 54.6835 32.9437 54.8167C32.7514 54.861 32.5548 54.883 32.3575 54.8825H11.4493C11.6465 54.883 11.8432 54.861 12.0355 54.8167H10.8739C10.3929 54.7089 9.95185 54.4669 9.60165 54.1185C9.25145 53.77 9.00629 53.3293 8.89437 52.8471C8.85033 52.6511 8.82839 52.4508 8.82893 52.2499V7.68465C8.82893 6.98644 9.105 6.31683 9.59641 5.82312C10.0878 5.32941 10.7543 5.05205 11.4493 5.05205H22.8032C22.9007 5.05199 22.9981 5.05747 23.0949 5.06849H23.1031L23.2531 5.09041L23.3676 5.11505C23.4219 5.12584 23.4756 5.13956 23.5285 5.15615L23.6757 5.20272L23.8202 5.26025L23.9538 5.32325C23.9975 5.34517 24.0411 5.36708 24.082 5.39174L24.2074 5.46845C24.2875 5.52104 24.3649 5.57773 24.4392 5.63829L24.551 5.73417L24.6546 5.83278C24.7219 5.90256 24.7856 5.9757 24.8455 6.05194V6.07386C24.8727 6.10673 24.8973 6.14234 24.9218 6.17521L24.9845 6.26562C25.0091 6.30397 25.0309 6.34232 25.0527 6.38067L25.1181 6.49847L44.7257 37.3747C45.481 38.391 46.0427 39.3663 47.2697 39.3663C47.6141 39.3663 47.955 39.2981 48.2731 39.1656C48.5912 39.0331 48.8802 38.839 49.1236 38.5942C49.3669 38.3495 49.5599 38.059 49.6914 37.7392C49.8229 37.4195 49.8904 37.0769 49.8901 36.7309C49.8901 36.6625 49.8901 36.5912 49.8901 36.52C49.8594 36.1887 49.7669 35.8663 49.6174 35.5694L49.2929 35.0654L44.434 27.5045L32.6738 9.15847L32.6056 9.05163C32.5702 8.9941 32.5402 8.93657 32.5102 8.87904C32.3066 8.47904 32.2081 8.0334 32.2242 7.58441C32.2402 7.13542 32.3703 6.69802 32.602 6.31374C32.8336 5.92946 33.1593 5.61107 33.5479 5.38881C33.9365 5.16655 34.3752 5.04779 34.8224 5.04382L34.8497 5L55.6652 5.01644L55.6952 5.04657C56.3657 5.08377 56.9965 5.37822 57.4572 5.86913C57.9179 6.36004 58.1734 7.00994 58.171 7.68465Z" fill="#0A754F"/>
</g>
<g filter="url(#filter1_dii_62_22)">
<path d="M56.1973 9.44646V50.4833C56.1971 51.0321 56.0119 51.5647 55.6721 51.994C55.3322 52.4234 54.7554 52.7949 54.2237 52.9181C53.6919 53.0414 43.8835 53.0821 43.171 52.9181C42.4586 52.7541 41.8961 52.3227 41.3944 51.5859L22.9641 22.5947L22.9465 22.5644V22.5442L22.8336 22.3651L22.7684 22.2641C22.4146 21.8075 21.9101 21.4933 21.346 21.3782C20.782 21.2631 20.1956 21.3549 19.6929 21.6368C19.1902 21.9187 18.8044 22.3722 18.6052 22.9153C18.4059 23.4585 18.4065 24.0553 18.6067 24.5981L34.4482 49.1359L34.5134 49.2343C34.5649 49.3222 34.6109 49.4132 34.6514 49.5068C34.791 49.8167 34.8629 50.1531 34.8621 50.4934C34.8617 51.0425 34.6762 51.5754 34.3359 52.0048C33.9955 52.4342 33.5204 52.7348 32.9882 52.8576C32.8113 52.8983 32.6304 52.9186 32.4489 52.9181H13.2133C13.3948 52.9186 13.5758 52.8983 13.7527 52.8576H12.684C12.2415 52.7583 11.8357 52.5354 11.5135 52.2145C11.1913 51.8935 10.9658 51.4876 10.8628 51.0434C10.8223 50.8629 10.8021 50.6784 10.8026 50.4934V9.44646C10.8026 8.80337 11.0566 8.18662 11.5087 7.73189C11.9608 7.27716 12.574 7.0217 13.2133 7.0217H23.6589C23.7486 7.02164 23.8382 7.02669 23.9273 7.03683H23.9349L24.0728 7.05702L24.1782 7.07972C24.2282 7.08966 24.2776 7.1023 24.3262 7.11758L24.4617 7.16047L24.5946 7.21346L24.7175 7.27149C24.7577 7.29167 24.7978 7.31186 24.8355 7.33457L24.9508 7.40522C25.0245 7.45366 25.0957 7.50587 25.1641 7.56166L25.2669 7.64996L25.3622 7.74079C25.4241 7.80506 25.4827 7.87243 25.5378 7.94264V7.96283C25.5629 7.99311 25.5855 8.02591 25.6081 8.05619L25.6658 8.13946C25.6884 8.17478 25.7084 8.2101 25.7285 8.24543L25.7887 8.35392L43.8277 36.7926C44.5225 37.7287 45.0393 38.6269 46.1682 38.6269C46.4849 38.6269 46.7986 38.5641 47.0913 38.4421C47.3839 38.3201 47.6498 38.1412 47.8737 37.9158C48.0976 37.6904 48.2751 37.4228 48.3961 37.1283C48.5171 36.8338 48.5792 36.5183 48.5789 36.1996C48.5789 36.1365 48.5789 36.0709 48.5789 36.0053C48.5507 35.7002 48.4655 35.4032 48.328 35.1298L48.0295 34.6655L43.5593 27.7016L32.7399 10.8039L32.6772 10.7055C32.6446 10.6525 32.617 10.5995 32.5894 10.5466C32.402 10.1781 32.3115 9.76767 32.3262 9.35413C32.341 8.94059 32.4607 8.53772 32.6738 8.18378C32.887 7.82984 33.1865 7.53659 33.5441 7.33187C33.9016 7.12716 34.3052 7.01777 34.7166 7.01412L34.7417 6.97375L53.892 6.98889L53.9196 7.01664C54.5365 7.05091 55.1168 7.32212 55.5406 7.77427C55.9645 8.22643 56.1996 8.82501 56.1973 9.44646Z" fill="white"/>
</g>
<defs>
<filter id="filter0_i_62_22" x="8.82892" y="5" width="49.3421" height="54" filterUnits="userSpaceOnUse" color-interpolation-filters="sRGB">
<feFlood flood-opacity="0" result="BackgroundImageFix"/>
<feBlend mode="normal" in="SourceGraphic" in2="BackgroundImageFix" result="shape"/>
<feColorMatrix in="SourceAlpha" type="matrix" values="0 0 0 0 0 0 0 0 0 0 0 0 0 0 0 0 0 0 127 0" result="hardAlpha"/>
<feOffset dy="4"/>
<feGaussianBlur stdDeviation="2"/>
<feComposite in2="hardAlpha" operator="arithmetic" k2="-1" k3="1"/>
<feColorMatrix type="matrix" values="0 0 0 0 0 0 0 0 0 0 0 0 0 0 0 0 0 0 0.25 0"/>
<feBlend mode="normal" in2="shape" result="effect1_innerShadow_62_22"/>
</filter>
<filter id="filter1_dii_62_22" x="0.802612" y="0.973755" width="65.3947" height="66.0526" filterUnits="userSpaceOnUse" color-interpolation-filters="sRGB">
<feFlood flood-opacity="0" result="BackgroundImageFix"/>
<feColorMatrix in="SourceAlpha" type="matrix" values="0 0 0 0 0 0 0 0 0 0 0 0 0 0 0 0 0 0 127 0" result="hardAlpha"/>
<feOffset dy="4"/>
<feGaussianBlur stdDeviation="5"/>
<feComposite in2="hardAlpha" operator="out"/>
<feColorMatrix type="matrix" values="0 0 0 0 0 0 0 0 0 0 0 0 0 0 0 0 0 0 0.06 0"/>
<feBlend mode="normal" in2="BackgroundImageFix" result="effect1_dropShadow_62_22"/>
<feBlend mode="normal" in="SourceGraphic" in2="effect1_dropShadow_62_22" result="shape"/>
<feColorMatrix in="SourceAlpha" type="matrix" values="0 0 0 0 0 0 0 0 0 0 0 0 0 0 0 0 0 0 127 0" result="hardAlpha"/>
<feOffset dy="-4"/>
<feGaussianBlur stdDeviation="2"/>
<feComposite in2="hardAlpha" operator="arithmetic" k2="-1" k3="1"/>
<feColorMatrix type="matrix" values="0 0 0 0 0 0 0 0 0 0 0 0 0 0 0 0 0 0 0.25 0"/>
<feBlend mode="normal" in2="shape" result="effect2_innerShadow_62_22"/>
<feColorMatrix in="SourceAlpha" type="matrix" values="0 0 0 0 0 0 0 0 0 0 0 0 0 0 0 0 0 0 127 0" result="hardAlpha"/>
<feOffset dx="2" dy="3"/>
<feGaussianBlur stdDeviation="1"/>
<feComposite in2="hardAlpha" operator="arithmetic" k2="-1" k3="1"/>
<feColorMatrix type="matrix" values="0 0 0 0 0.633333 0 0 0 0 1 0 0 0 0 0.871171 0 0 0 0.8 0"/>
<feBlend mode="normal" in2="effect2_innerShadow_62_22" result="effect3_innerShadow_62_22"/>
</filter>
</defs>
</svg>
